<svg xmlns="http://www.w3.org/2000/svg" viewBox="0 0 81.685 103.382">
<path fill="#0f4667" d="M81.684 73.978V52.603c0-4.5-3.644-9.466-8.14-11.1l-8.14-2.963v29.513c0 4.5 3.644 9.466 8.14 11.1s8.14-.682 8.14-5.177"/>
<path fill="#0f4667" d="M34.751 76.309v21.372c0 4.495-3.644 6.813-8.14 5.177s-8.139-6.606-8.139-11.1V69.596a14.055 14.055 0 0 0-9.249-13.208l-1.082-.395C3.646 54.357.002 49.387.002 44.893v-27.34c0-4.5 3.644-6.814 8.139-5.177s8.14 6.607 8.14 11.1v28.127a14.056 14.056 0 0 0 9.249 13.209l1.083.394c4.5 1.636 8.14 6.607 8.14 11.1"/>
<path fill="#0f4667" d="M58.218 64.458v21.368c0 4.495-3.644 6.813-8.14 5.177s-8.139-6.606-8.139-11.1V57.745a14.055 14.055 0 0 0-9.249-13.209l-1.084-.395c-4.495-1.636-8.139-6.606-8.139-11.100V5.702c0-4.5 3.644-6.814 8.139-5.177s8.14 6.607 8.14 11.1v28.127a14.056 14.056 0 0 0 9.249 13.209l1.083.394c4.5 1.636 8.14 6.607 8.14 11.1"/>
<path fill="#49c44e" d="M73.547 19.027c-4.5-1.636-8.14.682-8.14 5.177v.591c0 4.5 3.644 9.466 8.14 11.1s8.139-.682 8.139-5.177v-.591c0-4.5-3.644-9.466-8.14-11.1"/>
</svg>